<svg xmlns="http://www.w3.org/2000/svg" viewBox="0 0 512 512">
  <rect width="512" height="512" rx="104" fill="#111827"/>
  <g fill="#f8fafc">
    <rect x="126" y="104" width="30" height="30" rx="3"/>
    <rect x="172" y="104" width="30" height="30" rx="3"/>
    <rect x="218" y="104" width="30" height="30" rx="3"/>
    <rect x="264" y="104" width="30" height="30" rx="3"/>
    <rect x="310" y="104" width="30" height="30" rx="3"/>
    <rect x="126" y="150" width="30" height="30" rx="3"/>
    <rect x="310" y="150" width="30" height="30" rx="3"/>
    <rect x="126" y="196" width="30" height="30" rx="3"/>
    <rect x="172" y="196" width="30" height="30" rx="3"/>
    <rect x="218" y="196" width="30" height="30" rx="3"/>
    <rect x="264" y="196" width="30" height="30" rx="3"/>
    <rect x="126" y="242" width="30" height="30" rx="3"/>
    <rect x="264" y="242" width="30" height="30" rx="3"/>
    <rect x="126" y="288" width="30" height="30" rx="3"/>
    <rect x="264" y="288" width="30" height="30" rx="3"/>
    <rect x="310" y="288" width="30" height="30" rx="3"/>
    <rect x="356" y="288" width="30" height="30" rx="3"/>
    <rect x="126" y="334" width="30" height="30" rx="3"/>
    <rect x="172" y="334" width="30" height="30" rx="3"/>
    <rect x="218" y="334" width="30" height="30" rx="3"/>
  </g>
  <rect x="356" y="334" width="30" height="30" rx="3" fill="#4f83ee"/>
</svg>
